PathFileType	4	(X/Y/Z)	C:/Users/opensim2020/Desktop/walking_exp_matlab/subject06_walking12_straigt_01.trc																																																																																																																																														
DataRate	CameraRate	NumFrames	NumMarkers	Units	OrigDataRate	OrigDataStartFrame	OrigNumFrames																																																																																																																																										
100	100	7	48	mm	100	966	196																																																																																																																																										
Frame#	Time	LFHD			RFHD			LBHD			RBHD			C7			T10			CLAV			STRN			RBAK			LSHO			LUPA			LELB			LFRM			LWRA			LWRB			LFIN			RSHO			RUPA			RELB			RFRM			RWRA			RWRB			RFIN			LASI			RASI			LPSI			RPSI			LTHI			LKNE			LTIB			LANK			LHEE			LTOE			RTHI			RKNE			RTIB			RANK			RHEE			RTOE			*39			*40			*41			*42			*43			*44			*45			*46			*47		
		X1	Y1	Z1	X2	Y2	Z2	X3	Y3	Z3	X4	Y4	Z4	X5	Y5	Z5	X6	Y6	Z6	X7	Y7	Z7	X8	Y8	Z8	X9	Y9	Z9	X10	Y10	Z10	X11	Y11	Z11	X12	Y12	Z12	X13	Y13	Z13	X14	Y14	Z14	X15	Y15	Z15	X16	Y16	Z16	X17	Y17	Z17	X18	Y18	Z18	X19	Y19	Z19	X20	Y20	Z20	X21	Y21	Z21	X22	Y22	Z22	X23	Y23	Z23	X24	Y24	Z24	X25	Y25	Z25	X26	Y26	Z26	X27	Y27	Z27	X28	Y28	Z28	X29	Y29	Z29	X30	Y30	Z30	X31	Y31	Z31	X32	Y32	Z32	X33	Y33	Z33	X34	Y34	Z34	X35	Y35	Z35	X36	Y36	Z36	X37	Y37	Z37	X38	Y38	Z38	X39	Y39	Z39	X40	Y40	Z40	X41	Y41	Z41	X42	Y42	Z42	X43	Y43	Z43	X44	Y44	Z44	X45	Y45	Z45	X46	Y46	Z46	X47	Y47	Z47	X48	Y48	Z48
																																																																																																																																																	
172	1.71	-1044.9646	1671.07788	-898.91803	-916.51941	1648.03784	-880.27002	-1069.06519	1626.54175	-764.55249	-941.91449	1608.86902	-747.59021	-1018.43567	1458.42944	-747.13702	-1010.1958	1128.45996	-719.07336	-1013.6488	1381.79724	-858.80048	-1023.31665	1206.89026	-902.22345	-943.94244	1283.15771	-674.65497	-1176.52478	1415.40149	-806.84772	-1246.69312	1212.87329	-819.59143	-1256.15002	1100.13391	-825.54089	-1276.98743	957.35046	-875.27173	-1234.17236	857.78833	-957.69373	-1271.40576	840.74347	-900.22571	-1273.04199	771.21539	-957.8006	-854.59772	1411.3584	-804.51453	-772.27008	1211.34875	-766.32214	-760.96503	1089.61633	-778.38812	-743.34998	970.05438	-791.91473	-771.38684	828.87073	-848.33496	-733.91345	831.59045	-793.10553	-729.63696	754.82202	-828.71167	-1124.9231	963.99591	-888.21539	-905.01556	973.61414	-901.5061	-1087.51648	995.57111	-731.69519	-920.09637	1003.10101	-749.68396	-1182.60974	647.37506	-817.77936	-1168.27014	484.1424	-826.18994	-1156.15247	321.84619	-638.30341	-1116.51721	203.96336	-514.39093	-1065.27515	220.29913	-483.53378	-1128.3949	70.08282	-574.51129	-855.96149	638.95996	-864.55475	-886.73059	516.10156	-877.81152	-896.65558	252.59013	-830.08307	-946.30634	68.40875	-808.02667	-988.76965	45.95908	-765.5343	-956.13092	33.48391	-962.02734	-996.29559	1711.10291	-794.04858	NaN	NaN	NaN	NaN	NaN	NaN	NaN	NaN	NaN	NaN	NaN	NaN	NaN	NaN	NaN	NaN	NaN	NaN	NaN	NaN	NaN	NaN	NaN	NaN
173	1.72	-1045.21143	1672.00464	-908.66974	-916.67859	1649.48547	-890.15875	-1069.06592	1626.98755	-774.37628	-941.85455	1609.79529	-757.55554	-1017.70813	1459.20251	-757.57373	-1008.80804	1129.30103	-729.68115	-1012.97632	1382.73938	-869.27032	-1022.11975	1207.85205	-912.75378	-942.50745	1284.31213	-685.23352	-1175.8418	1415.96777	-817.07813	-1246.41711	1213.4845	-827.9397	-1255.84741	1100.69043	-832.46442	-1277.40796	956.82581	-878.72333	-1235.1842	854.69629	-958.30048	-1272.51685	839.61536	-900.36774	-1274.58667	768.41339	-956.02771	-853.86908	1412.63293	-815.40118	-771.02692	1212.59424	-778.31281	-759.72137	1090.89099	-790.90454	-742.39636	971.48401	-805.86597	-771.05493	831.16498	-864.17023	-733.20258	833.08496	-809.0506	-729.42181	756.69824	-845.63995	-1123.56763	965.36719	-899.30042	-903.48621	973.75287	-910.93292	-1086.81665	996.79218	-742.30743	-919.47223	1003.80438	-759.6192	-1182.82312	649.12775	-831.43726	-1168.33374	485.86212	-842.16919	-1156.9043	319.20999	-657.67316	-1117.51099	198.24254	-536.79321	-1066.04138	212.88867	-505.17831	-1131.56763	67.98215	-602.54028	-855.38403	638.73724	-871.25208	-885.79846	515.62445	-882.39349	-895.86725	252.53497	-831.5636	-945.99731	68.53614	-808.05469	-988.19196	46.24247	-765.03296	-955.5907	33.05561	-961.90405	-996.63623	1711.93982	-803.69672	NaN	NaN	NaN	NaN	NaN	NaN	NaN	NaN	NaN	NaN	NaN	NaN	NaN	NaN	NaN	NaN	NaN	NaN	NaN	NaN	NaN	NaN	NaN	NaN
174	1.73	-1045.52759	1672.84119	-918.34277	-916.87201	1650.72119	-899.93378	-1069.10095	1627.22131	-784.18378	-941.86212	1610.48596	-767.50934	-1016.94366	1459.76746	-767.87103	-1007.76776	1130.12744	-739.75305	-1012.289	1383.47571	-879.62982	-1020.90961	1208.55261	-923.14923	-941.15204	1285.25513	-695.77826	-1175.10107	1416.3396	-827.12585	-1245.72229	1213.84192	-835.91406	-1255.67334	1101.19128	-839.12726	-1277.84314	956.46124	-882.12396	-1236.03235	851.89246	-958.79089	-1273.51611	838.66504	-900.55341	-1275.62512	765.68854	-953.83014	-853.16443	1413.72754	-826.22266	-769.58514	1213.58801	-790.55927	-758.50433	1092.00195	-803.43298	-741.41736	972.77606	-819.87878	-770.27319	833.54877	-880.46973	-732.61078	834.37469	-825.08069	-729.20343	758.53717	-862.76746	-1121.66992	966.54028	-909.8075	-901.99158	973.68921	-920.2486	-1086.32141	997.87134	-752.74957	-918.70691	1004.42529	-768.3186	-1183.24695	650.53864	-844.54755	-1168.4458	487.32462	-857.93939	-1157.55029	315.98697	-677.42908	-1118.61487	191.78644	-559.75818	-1066.88281	204.58293	-527.20941	-1134.34814	65.83505	-631.92822	-854.79639	638.38702	-876.75366	-884.63739	515.15521	-886.96307	-894.95319	252.57555	-832.84851	-945.6427	68.77257	-807.99921	-987.97522	47.01751	-764.90009	-955.32233	32.69476	-961.88965	-997.05048	1712.5907	-813.24335	NaN	NaN	NaN	NaN	NaN	NaN	NaN	NaN	NaN	NaN	NaN	NaN	NaN	NaN	NaN	NaN	NaN	NaN	NaN	NaN	NaN	NaN	NaN	NaN
175	1.74	-1045.76892	1673.43555	-927.83826	-917.04742	1651.84839	-909.71143	-1069.11743	1627.29468	-793.953	-941.71149	1610.99817	-777.38202	-1016.23761	1460.20618	-778.17651	-1006.72778	1130.75684	-749.77832	-1011.57513	1383.96423	-889.91461	-1019.73273	1209.04041	-933.45087	-939.75275	1286.19763	-706.04266	-1174.42664	1416.71216	-837.19501	-1245.19519	1214.06555	-843.49457	-1255.73096	1101.61462	-845.53223	-1278.24792	956.125	-885.38806	-1236.82056	849.48859	-959.47253	-1274.56934	837.88629	-900.81934	-1276.96533	763.56512	-952.37415	-852.45111	1414.60376	-836.9884	-768.47882	1214.53467	-801.93152	-757.20709	1092.90979	-815.80579	-740.38513	973.7868	-833.75201	-770.36066	835.42468	-895.76288	-731.80933	835.68732	-841.10071	-729.09442	760.26849	-879.88135	-1120.32776	967.45477	-920.87616	-900.54718	973.56183	-929.34753	-1086.02966	998.80121	-763.1676	-918.28735	1004.81726	-777.6004	-1183.05225	651.76538	-859.30786	-1168.5791	488.60809	-873.71985	-1158.32251	312.62894	-697.14624	-1119.87622	184.62514	-583.50427	-1068.13916	195.44186	-549.92352	-1136.68774	63.27887	-662.06567	-854.16125	638.20764	-882.69849	-883.86279	514.61591	-891.33142	-894.04718	252.59933	-834.07355	-945.35376	69.05641	-808.00433	-987.57806	47.28097	-764.69373	-955.26294	32.29346	-961.85187	-997.42426	1713.02466	-822.66296	NaN	NaN	NaN	NaN	NaN	NaN	NaN	NaN	NaN	NaN	NaN	NaN	NaN	NaN	NaN	NaN	NaN	NaN	NaN	NaN	NaN	NaN	NaN	NaN
176	1.75	-1046.08313	1673.8092	-937.28986	-917.27039	1652.7644	-919.3941	-1068.95178	1627.02905	-803.40497	-941.49591	1611.3114	-787.19751	-1015.38995	1460.51477	-788.31311	-1005.91492	1131.1825	-759.82648	-1010.88293	1384.31396	-900.15466	-1018.54535	1209.27893	-943.50037	-938.40656	1286.82068	-716.38312	-1173.70386	1416.84717	-847.16162	-1245.15027	1214.43518	-851.2644	-1255.78369	1101.95142	-851.60223	-1278.72717	955.77374	-888.62726	-1237.30188	847.11609	-959.64185	-1275.6925	837.26678	-901.31458	-1277.86475	761.46979	-950.64929	-851.78857	1415.28345	-847.64014	-766.92249	1215.19336	-813.95428	-755.92743	1093.65479	-828.07434	-739.34888	974.83643	-847.71967	-770.22638	837.39142	-911.53528	-731.19177	836.73486	-857.25244	-728.98346	761.95099	-897.06671	-1118.43567	968.06293	-931.10382	-899.11542	973.30139	-938.27539	-1085.96497	999.46552	-773.52563	-917.94611	1005.12146	-786.57684	-1183.84912	652.92017	-872.40686	-1168.74353	489.82742	-889.30389	-1159.04443	309.23376	-717.32062	-1121.25525	176.82556	-608.07428	-1069.54773	185.71893	-573.62958	-1139.08105	60.68082	-693.3299	-853.43372	637.94147	-888.16553	-882.78552	514.0755	-895.58075	-893.25763	252.6515	-835.43927	-944.966	69.61775	-808.14539	-987.55847	47.99652	-764.42151	-955.30322	32.0687	-961.9184	-997.6756	1713.13977	-832.00519	NaN	NaN	NaN	NaN	NaN	NaN	NaN	NaN	NaN	NaN	NaN	NaN	NaN	NaN	NaN	NaN	NaN	NaN	NaN	NaN	NaN	NaN	NaN	NaN
177	1.76	-1046.46997	1674.10327	-946.68158	-917.46051	1653.56543	-929.09924	-1068.90063	1626.67615	-813.01086	-941.35657	1611.4248	-797.01428	-1014.65668	1460.64111	-798.5108	-1005.22839	1131.46826	-769.71387	-1010.18115	1384.47559	-910.29669	-1017.4024	1209.3446	-953.46063	-937.02368	1287.5083	-726.46423	-1173.08081	1416.88611	-857.19287	-1244.91052	1214.59155	-858.87476	-1255.97498	1102.24841	-857.60144	-1279.15857	955.51868	-891.92645	-1237.66565	844.99316	-959.94666	-1276.57971	836.64612	-901.85162	-1278.91138	759.95404	-949.7879	-851.08569	1415.70227	-858.07056	-765.89966	1215.68799	-825.00372	-754.60461	1094.24255	-840.33942	-738.26556	975.61511	-861.54572	-769.91748	839.56006	-927.52582	-730.46545	837.81726	-873.41858	-728.77911	763.63635	-914.34674	-1117.17041	968.45129	-941.88831	-897.55688	973.04639	-947.17139	-1085.98608	999.8877	-783.89008	-917.8623	1005.20874	-795.64844	-1184.38269	653.78345	-886.164	-1168.90186	490.95981	-904.76862	-1159.84314	305.55078	-738.03351	-1122.71594	168.71841	-633.37354	-1070.99084	175.69472	-598.28931	-1141.34546	57.5209	-724.40796	-852.78271	637.68958	-893.20837	-881.59497	513.56921	-899.62799	-892.55444	252.72752	-836.8819	-944.8974	70.10375	-808.31879	-987.46002	48.60706	-764.94092	-955.26709	31.9092	-962.021	-997.93298	1713.17212	-841.28137	NaN	NaN	NaN	NaN	NaN	NaN	NaN	NaN	NaN	NaN	NaN	NaN	NaN	NaN	NaN	NaN	NaN	NaN	NaN	NaN	NaN	NaN	NaN	NaN
178	1.77	-1046.57117	1674.31274	-955.97235	-917.59406	1654.19116	-938.74945	-1068.72131	1626.2002	-822.49799	-941.07544	1611.36633	-806.82281	-1014.02606	1460.72046	-808.75604	-1004.70416	1131.61316	-779.50458	-1009.5343	1384.51563	-920.36774	-1016.32404	1209.2959	-963.32288	-935.82324	1287.91418	-736.51526	-1172.46521	1416.76978	-867.13434	-1244.77661	1214.64282	-866.2052	-1256.23633	1102.44946	-863.36005	-1279.7229	955.16479	-895.07819	-1237.86597	843.03003	-960.2077	-1277.65955	836.19196	-902.45154	-1279.24512	758.0722	-948.43146	-850.40106	1416.0636	-868.51471	-764.65948	1216.05591	-836.43622	-753.21185	1094.65442	-852.48553	-737.22125	976.32843	-875.39746	-769.85541	841.28217	-943.00153	-729.57581	838.8808	-889.5506	-728.53558	765.31641	-931.77917	-1115.52649	968.60321	-951.78894	-896.17102	972.60162	-955.84271	-1086.17822	1000.26581	-793.98328	-917.88519	1005.3609	-804.28857	-1184.13171	654.6637	-901.75031	-1169.03027	492.01627	-920.16278	-1160.70776	301.55432	-759.06464	-1124.11414	160.3746	-659.44617	-1072.3324	165.40959	-623.91473	-1143.52124	54.23943	-755.64172	-852.26105	637.48041	-898.27264	-880.80322	513.0824	-903.5932	-892.1225	252.90047	-838.39001	-944.93188	70.46896	-808.3548	-987.59839	49.3988	-764.63177	-955.07996	31.7032	-962.03662	-998.24506	1713.13477	-850.53979	NaN	NaN	NaN	NaN	NaN	NaN	NaN	NaN	NaN	NaN	NaN	NaN	NaN	NaN	NaN	NaN	NaN	NaN	NaN	NaN	NaN	NaN	NaN	NaN
